<svg xmlns="http://www.w3.org/2000/svg" width="70" height="70" viewBox="0 0 70 70">
  <g id="info-icon-outline" data-name="info-icon-outline" transform="translate(-3.375 -3.375)">
    <path id="Path_14" data-name="Path 14" d="M16.552,14.057A3.468,3.468,0,1,1,20,17.423,3.369,3.369,0,0,1,16.552,14.057Zm.236,6.007h6.428V44.312H16.787Z" transform="translate(18.357 10.217)" fill="#1f324b"/>
    <path id="Path_15" data-name="Path 15" d="M38.375,8.087A30.293,30.293,0,0,1,59.8,59.8,30.293,30.293,0,0,1,16.954,16.954,30.088,30.088,0,0,1,38.375,8.087m0-4.712a35,35,0,1,0,35,35,34.995,34.995,0,0,0-35-35Z" transform="translate(0 0)" fill="#1f324b"/>
  </g>
</svg>
